:SAMPLES-PER-SECOND 30
:FULLY-SPECIFIED
:DEGREES
582
root  6.36764 40.8644 -2.63219 -144.821 -87.8496 142.841
RightUpLeg  1.33555 -9.89067 -9.10603
RightLeg  5.50181 2.33386 3.39936
RightFoot  -2.41224 -0.0718325 0.704915
RightToes  0.00048216 0.542163 -0.142577
Spine  6.53429 1.92499 2.78245
Spine1  -2.22282 2.51867 -2.4411
HEad  -4.93958 0.491082 -0.642576
LeftShoulder1  1.05252 -2.88791 -9.00477
LeftArm  -21.4466 17.276 -4.7432
LeftForeArm  8.86077 -9.38471 -0.503272
LeftHand  -0.25398 0.0180481 5.50724
RightShoulder  0.971803 1.89672 10.7981
RightArm  -25.5033 -9.03992 5.47384
RightForeArm  -13.019 7.52211 2.75377
RightHand  -2.77516 7.68997 -24.6835
LeftUpLeg  3.11354 5.1514 2.66961
LeftLeg  2.71455 12.8693 -3.66929
LeftFoot  -4.33323 0.122236 -1.57048
LeftToes  1.06243e-005 4.65856e-005 -8.18505e-006
583
root  6.34877 40.8634 -2.72797 -127.045 -88.358 124.81
RightUpLeg  1.73766 -9.86034 -9.04388
RightLeg  5.64069 1.55812 3.2859
RightFoot  -2.6748 -0.0551514 0.474325
RightToes  0.00048216 0.542163 -0.142577
Spine  6.3209 1.67096 2.53783
Spine1  -2.94182 2.21105 -2.27324
HEad  -4.48733 0.289943 -0.556466
LeftShoulder1  0.803038 -2.19282 -6.3413
LeftArm  -24.0716 16.5255 -3.64942
LeftForeArm  8.74543 -11.4445 -0.218057
LeftHand  -0.25398 0.0180481 5.50724
RightShoulder  0.688881 0.97436 7.88314
RightArm  -25.5497 -7.92592 3.43981
RightForeArm  -14.8183 7.25478 2.87821
RightHand  -2.94729 8.32074 -25.0019
LeftUpLeg  3.32597 4.99575 2.66555
LeftLeg  2.63018 12.2584 -3.54163
LeftFoot  -4.08872 0.105819 -1.28689
LeftToes  1.06243e-005 4.65856e-005 -8.18505e-006
584
root  6.32228 40.8553 -2.82168 -106.8 -88.5765 104.299
RightUpLeg  2.0286 -9.81632 -8.96793
RightLeg  5.97402 0.991007 3.18649
RightFoot  -2.90724 -0.0477174 0.37981
RightToes  0.00048216 0.542163 -0.142577
Spine  5.99221 1.4995 2.46404
Spine1  -3.30638 2.03651 -2.34362
HEad  -3.96767 -0.0517204 -0.374117
LeftShoulder1  0.593389 -1.43988 -3.98281
LeftArm  -27.9475 15.6047 -3.10612
LeftForeArm  10.284 -13.7015 -0.110748
LeftHand  -0.25398 0.0180481 5.50724
RightShoulder  0.480069 0.113495 5.51857
RightArm  -25.6156 -6.83692 1.79977
RightForeArm  -15.3117 7.26991 3.00073
RightHand  -3.08428 8.96532 -24.9949
LeftUpLeg  3.48776 4.91755 2.72072
LeftLeg  2.77976 11.7489 -3.38365
LeftFoot  -3.95317 0.098362 -1.17099
LeftToes  1.06243e-005 4.65856e-005 -8.18505e-006
585
root  6.29408 40.8475 -2.91201 -86.4298 -88.5986 83.7161
RightUpLeg  2.33219 -9.82088 -8.91957
RightLeg  6.16329 0.531147 3.1838
RightFoot  -3.16123 -0.0429646 0.306031
RightToes  0.00048216 0.542163 -0.142577
Spine  5.5601 1.37729 2.51863
Spine1  -3.46144 1.94946 -2.63694
HEad  -3.50844 -0.524429 -0.0582372
LeftShoulder1  0.444494 -0.772619 -2.17066
LeftArm  -32.1346 14.3586 -2.81166
LeftForeArm  12.0375 -15.5464 -0.305194
LeftHand  -0.25398 0.0180481 5.50724
RightShoulder  0.344296 -0.56644 3.76504
RightArm  -25.4627 -6.0147 0.507408
RightForeArm  -15.4474 7.44494 3.16749
RightHand  -3.27505 9.63759 -25.3404
LeftUpLeg  3.59874 4.90915 2.81455
LeftLeg  2.95121 11.2555 -3.26935
LeftFoot  -3.86258 0.0943708 -1.10895
LeftToes  1.06243e-005 4.65856e-005 -8.18505e-006
586
root  6.28674 40.8466 -2.99228 -70.2523 -88.4693 67.4267
RightUpLeg  2.55363 -9.82945 -8.86126
RightLeg  6.18236 0.108568 3.19682
RightFoot  -3.34143 -0.0297697 0.101185
RightToes  0.00048216 0.542163 -0.142577
Spine  5.18793 1.29767 2.54053
Spine1  -3.69909 1.88868 -2.83547
HEad  -3.09703 -0.989089 0.160298
LeftShoulder1  0.367384 -0.358923 -1.16293
LeftArm  -34.1481 12.6848 -2.41715
LeftForeArm  12.0875 -16.0519 -0.424489
LeftHand  -0.25398 0.0180481 5.50724
RightShoulder  0.257017 -1.05943 2.38934
RightArm  -25.0657 -5.34249 -0.36442
RightForeArm  -15.3552 7.38689 3.3142
RightHand  -3.46294 10.1138 -25.9478
LeftUpLeg  3.63603 4.89731 2.8842
LeftLeg  2.9997 10.8509 -3.21388
LeftFoot  -3.76916 0.0899968 -1.04097
LeftToes  1.06243e-005 4.65856e-005 -8.18505e-006
587
root  6.3102 40.8503 -3.06268 -61.0238 -88.3146 58.1586
RightUpLeg  2.61128 -9.80613 -8.76208
RightLeg  6.18771 -0.227303 3.17832
RightFoot  -3.37187 -0.0175751 -0.0881551
RightToes  0.00048216 0.542163 -0.142577
Spine  4.92098 1.23379 2.47281
Spine1  -3.96888 1.80812 -2.79823
HEad  -2.72124 -1.27121 0.0636718
LeftShoulder1  0.336579 -0.220745 -0.618703
LeftArm  -33.0336 10.8829 -2.08263
LeftForeArm  10.6161 -14.7816 -0.0196633
LeftHand  -0.25398 0.0180481 5.50724
RightShoulder  0.198007 -1.43939 1.34147
RightArm  -24.6422 -4.44962 -0.85997
RightForeArm  -14.2256 6.70724 3.30661
RightHand  -3.48343 10.1803 -25.9858
LeftUpLeg  3.57484 4.85252 2.92685
LeftLeg  3.02663 10.6027 -3.14242
LeftFoot  -3.66288 0.0886728 -1.02039
LeftToes  1.06243e-005 4.65856e-005 -8.18505e-006
588
root  6.35187 40.852 -3.12907 -55.1646 -88.2053 52.247
RightUpLeg  2.62133 -9.78913 -8.65305
RightLeg  6.22853 -0.464407 3.18636
RightFoot  -3.36698 -0.0141535 -0.141285
RightToes  0.00048216 0.542163 -0.142577
Spine  4.73361 1.12324 2.27713
Spine1  -4.07877 1.6489 -2.52162
HEad  -2.48538 -1.25756 -0.276928
LeftShoulder1  0.316076 -0.204561 -0.0374636
LeftArm  -30.4196 9.46157 -2.17237
LeftForeArm  9.29623 -12.2168 0.558374
LeftHand  -0.25398 0.0180481 5.50724
RightShoulder  0.165452 -1.68115 0.756471
RightArm  -24.3093 -3.28272 -1.16543
RightForeArm  -12.1143 5.5128 3.15933
RightHand  -3.32217 9.90516 -25.2626
LeftUpLeg  3.4717 4.82079 2.99298
LeftLeg  3.1433 10.4045 -3.03281
LeftFoot  -3.58798 0.0909948 -1.05648
LeftToes  1.06243e-005 4.65856e-005 -8.18505e-006
